HIERARCHY
ROOT hip
{
	OFFSET 0.000000 0.000000 0.000000 
	CHANNELS 6 Xposition Yposition Zposition Xrotation Zrotation Yrotation
	JOINT abdomen
	{
		OFFSET 0.000000 3.402643 0.000000 
		CHANNELS 3 Xrotation Zrotation Yrotation
		JOINT chest
		{
			OFFSET 0.000000 8.438565 -0.680529 
			CHANNELS 3 Xrotation Zrotation Yrotation
			JOINT neck
			{
				OFFSET 0.000000 10.207942 -0.272212 
				CHANNELS 3 Xrotation Zrotation Yrotation
				JOINT head
				{
					OFFSET 0.000000 3.130431 0.000000 
					CHANNELS 3 Xrotation Zrotation Yrotation
					End Site
					{
						OFFSET 0.000000 3.130435 0.000000 
					}
				}
			}
			JOINT lCollar
			{
				OFFSET 3.470700 6.669187 -0.816635 
				CHANNELS 3 Yrotation Zrotation Xrotation
				JOINT lShldr
				{
					OFFSET 3.198488 0.000000 0.000000 
					CHANNELS 3 Zrotation Yrotation Xrotation
					JOINT lForeArm
					{
						OFFSET 10.139888 0.000000 0.000000 
						CHANNELS 3 Yrotation Zrotation Xrotation
						JOINT lHand
						{
							OFFSET 8.370511 0.000000 0.000000 
							CHANNELS 3 Zrotation Yrotation Xrotation
							End Site
							{
								OFFSET 4.083176 0.000000 0.000000 
							}
						}
					}
				}
			}
			JOINT rCollar
			{
				OFFSET -3.470700 6.669187 -0.816635 
				CHANNELS 3 Yrotation Zrotation Xrotation
				JOINT rShldr
				{
					OFFSET -3.198488 0.000000 0.000000 
					CHANNELS 3 Zrotation Yrotation Xrotation
					JOINT rForeArm
					{
						OFFSET -10.139888 0.000000 0.000000 
						CHANNELS 3 Yrotation Zrotation Xrotation
						JOINT rHand
						{
							OFFSET -8.370511 0.000000 0.000000 
							CHANNELS 3 Zrotation Yrotation Xrotation
							End Site
							{
								OFFSET -4.083176 0.000000 0.000000 
							}
						}
					}
				}
			}
		}
	}
	JOINT lThigh
	{
		OFFSET 5.308129 -1.633274 1.361059 
		CHANNELS 3 Xrotation Zrotation Yrotation
		JOINT lShin
		{
			OFFSET -2.041588 -20.007561 0.000000 
			CHANNELS 3 Xrotation Zrotation Yrotation
			JOINT lFoot
			{
				OFFSET 0.000000 -19.190928 -1.224953 
				CHANNELS 3 Xrotation Yrotation Zrotation
				End Site
				{
					OFFSET 0.000000 -2.449906 4.627600 
				}
			}
		}
	}
	JOINT rThigh
	{
		OFFSET -5.308129 -1.633274 1.361059 
		CHANNELS 3 Xrotation Zrotation Yrotation
		JOINT rShin
		{
			OFFSET 2.041588 -20.007561 0.000000 
			CHANNELS 3 Xrotation Zrotation Yrotation
			JOINT rFoot
			{
				OFFSET 0.000000 -19.190928 -1.224953 
				CHANNELS 3 Xrotation Yrotation Zrotation
				End Site
				{
					OFFSET 0.000000 -2.449906 4.627600 
				}
			}
		}
	}
}
MOTION
Frames: 10
Frame Time: 0.033333
0.012611 45.740501 2.216416 -2.832031 -3.896484 -1.524101 10.370376 -8.712459 -6.345483 -3.720703 11.923829 12.628972 22.170177 3.690329 0.172288 -2.724610 -1.972656 -4.541016 2.000000 -2.000000 0.000000 86.904297 -4.658204 3.310547 -10.079978 0.591767 -37.104752 -6.968110 8.604088 -58.233818 -2.000000 2.000000 0.000000 -90.869141 25.791016 88.930031 10.226773 14.453968 -112.094231 19.144085 -10.586765 -78.246414 21.581823 3.224185 17.198847 4.714553 2.396787 1.019398 11.997554 -17.845497 9.759623 19.112888 3.358154 1.843205 4.280409 -1.277964 -0.750966 8.545361 2.204657 13.425252 
-0.039848 45.766472 2.082378 -2.958984 -4.160192 -1.709676 10.370376 -8.712459 -6.345483 -2.919921 12.109376 12.785253 21.593443 3.749721 0.173187 -2.353516 -2.490234 -4.843751 2.000000 -2.000000 0.000000 87.636719 -6.093750 3.164063 -10.614639 0.467843 -37.929634 -6.590355 8.718246 -58.314373 -2.000000 2.000000 0.000000 -92.373047 27.529297 89.150391 11.022677 13.983632 -115.082443 19.949551 -10.388747 -78.444862 21.454504 3.711697 17.393044 5.003938 2.089671 0.947883 12.177357 -17.731405 9.942662 18.881296 3.729467 1.963094 4.580699 -1.403391 -0.784771 8.657504 2.310955 13.327970 
0.019106 45.726994 1.850277 -2.578125 -3.281250 -1.494141 10.370376 -8.712459 -6.345483 -2.597655 11.240234 12.638623 20.890696 3.709640 0.169369 -2.001953 -1.611328 -4.863282 2.000000 -2.000000 0.000000 87.919922 -7.939454 2.498651 -11.628576 0.128943 -39.099113 -6.188694 9.447626 -58.591255 -2.000000 2.000000 0.000000 -93.183594 29.335939 88.955078 11.379726 13.068089 -117.444572 21.055052 -10.178498 -78.677834 20.282537 2.646741 17.087389 5.457344 2.569596 1.040980 12.604088 -17.959764 10.249312 17.688021 2.655379 1.637716 5.415770 -1.054687 -0.645185 8.485136 2.007043 13.209547 
-0.016593 45.791225 1.646262 -2.939453 -3.427734 -1.406250 10.370376 -8.712459 -6.345483 -1.416014 11.240234 12.804638 20.527933 3.861773 0.195758 -1.005860 -1.787109 -5.546875 2.000000 -2.000000 0.000000 88.144531 -10.742188 2.068492 -12.633696 -0.041145 -38.908615 -7.057473 8.321612 -58.599869 -2.000000 2.000000 0.000000 -95.058594 32.587887 89.350967 13.388482 12.041576 -119.981834 20.420183 -10.496579 -78.790146 20.161903 2.706376 17.127195 5.759830 2.890425 1.095531 12.232224 -17.756266 10.684805 17.625525 3.017257 1.769519 5.650342 -1.366021 -0.706806 8.823260 1.940196 13.595168 
-0.085707 45.813213 1.371547 -2.773438 -3.847657 -1.503906 10.370376 -8.712459 -6.345483 -0.712891 11.552734 12.978517 20.157803 3.760838 0.181384 -0.830078 -1.962891 -5.380860 2.000000 -2.000000 0.000000 87.714844 -14.609375 1.228006 -14.055937 -0.588465 -37.964706 -6.875703 8.095501 -58.738945 -2.000000 2.000000 0.000000 -95.458984 36.669918 89.185516 13.442559 10.432880 -121.973915 19.777792 -11.176295 -78.910515 19.247349 3.154391 17.392006 6.343975 3.183689 1.079516 12.231326 -17.608412 10.907151 16.728075 3.788736 1.968127 6.271442 -1.843259 -0.727763 8.797296 2.178605 13.777123 
-0.131444 45.831390 1.030331 -2.675781 -4.052766 -1.553411 10.370376 -8.712459 -6.345483 0.175781 11.621095 13.125001 19.796762 3.731872 0.185762 -0.917968 -2.314453 -5.127347 2.000000 -2.000000 0.000000 86.650391 -19.726563 0.019531 -15.772232 -1.530050 -36.850758 -6.620202 8.611056 -59.064640 -2.000000 2.000000 0.000000 -95.166016 42.070316 89.052734 13.429876 8.492577 -125.525078 19.120510 -12.139357 -79.068359 18.078915 3.438520 17.588657 7.047243 3.593784 1.129249 15.013700 -19.553410 8.136826 15.532543 4.188885 2.066008 7.406300 -2.051711 -0.634159 8.673230 2.157009 13.545435 
-0.111906 45.851868 0.640697 -2.978516 -3.505860 -1.289063 10.370376 -8.712459 -6.345483 1.464844 10.996094 13.146393 19.581728 3.752643 0.192499 -1.083985 -2.646484 -5.253907 2.000000 -2.000000 0.000000 84.619141 -26.318357 -1.992187 -17.587957 -2.697666 -35.228321 -6.578740 8.962303 -59.467239 -2.000000 2.000000 0.000000 -94.804688 48.896484 88.923370 14.360235 6.043429 -130.656021 18.120420 -12.978828 -79.307755 16.856861 2.853437 17.447458 8.046502 4.413588 1.292441 19.046732 -22.342220 4.890464 14.438688 3.554107 1.922091 8.928427 -1.886271 -0.505331 8.565886 2.016582 13.511263 
-0.104390 45.870953 0.178862 -3.066406 -3.007813 -1.162109 10.370376 -8.712459 -6.345483 2.910157 10.546877 13.234209 19.185020 3.343627 0.165445 -1.455079 -2.412109 -5.273438 2.000000 -2.000000 0.000000 80.507813 -34.189453 -4.507441 -19.283199 -4.175605 -32.248642 -6.352395 8.257414 -59.745979 -2.000000 2.000000 0.000000 -95.185547 57.050781 88.818359 15.839634 3.305065 -136.461609 16.964405 -13.025204 -79.600372 15.047573 2.315206 17.403444 10.042675 5.173851 1.278495 19.307014 -22.830715 4.224044 12.765615 3.016193 1.750000 10.815731 -1.797872 -0.320557 8.829429 1.928858 14.046897 
-0.181578 45.885868 -0.440876 -1.894531 -3.476563 -1.709576 10.370376 -8.712459 -6.345483 3.876956 11.005860 13.468661 18.028799 2.554551 0.107464 -1.914064 -1.943359 -4.687501 2.000000 -2.000000 0.000000 72.490234 -42.871094 -7.167968 -20.203075 -6.431854 -26.009838 -5.723358 6.993054 -59.942238 -2.000000 2.000000 0.000000 -98.066406 66.689453 87.792969 17.308065 0.869691 -142.831818 16.630491 -12.364688 -79.875565 11.308077 3.008177 17.876112 13.468042 5.651508 1.184570 16.199015 -21.048975 5.995822 9.111040 3.867264 2.063994 13.488218 -2.119777 -0.175235 9.144448 2.212681 15.271029 
-0.281915 45.906643 -1.155610 -0.175781 -4.091797 -2.578125 10.370376 -8.712459 -6.345483 5.107424 11.445313 13.732406 15.972528 1.776580 0.057181 -2.343750 -1.757813 -3.750000 2.000000 -2.000000 0.000000 56.923828 -51.962887 -10.380858 -18.453056 -9.518701 -11.031891 -4.791053 5.912815 -60.027874 -2.000000 2.000000 0.000000 75.019547 95.527344 -66.933640 -162.343323 -177.217651 2.322980 17.691780 -11.310042 -80.005417 6.510889 4.022814 18.391373 17.513950 6.257885 1.058892 13.185326 -19.211658 7.702625 4.350787 5.033979 2.493886 16.802565 -2.492294 0.008536 9.337365 2.009264 16.291328 
